<svg xmlns="http://www.w3.org/2000/svg" width="500" height="1045" fill="none">
  <g clip-path="url(#clip0_2305_2399)">
    <g clip-path="url(#clip1_2305_2399)">
      <g filter="url(#filter0_d_2305_2399)" shape-rendering="crispEdges">
        <path fill="#fff" fill-opacity=".8" d="M636.788 225.235C563.268 519.389 146.328 824.122-72 949.136v73.724s634.439-444.728 708.788-797.625Z"/>
        <path stroke="#fff" stroke-opacity=".36" stroke-width="12" d="M636.788 225.235C563.268 519.389 146.328 824.122-72 949.136v73.724s634.439-444.728 708.788-797.625Zm0 0c6.122-29.056 9.957-58.142 11.212-87.099 0 28.804-3.914 57.899-11.212 87.099Z"/>
      </g>
      <path fill="#fff" fill-opacity=".1" d="M-70.583 822.752-87 887.276S522.887 628.048 661.336 334.44c-124.7 242.368-528.281 423.636-731.919 488.312Z"/>
      <path stroke="#fff" stroke-opacity=".05" stroke-width="24" d="M661.336 334.44c-124.7 242.368-528.281 423.636-731.919 488.312L-87 887.276S522.887 628.048 661.336 334.44Zm0 0c11.399-24.174 20.964-48.843 28.422-73.928-6.414 25.209-16.044 49.869-28.422 73.928Z"/>
      <path fill="#fff" fill-opacity=".2" d="M565.676 172.97C497.976 564.631 114.043 970.378-87 1136.83V1235S497.212 642.847 565.676 172.97Z"/>
      <path stroke="#fff" stroke-opacity=".12" stroke-width="24" d="M565.676 172.97C497.976 564.631 114.043 970.378-87 1136.83V1235S497.212 642.847 565.676 172.97Zm0 0C571.313 134.283 574.844 95.555 576 57c0 38.353-3.604 77.092-10.324 115.97Z"/>
      <ellipse cx="4.098" cy="3.974" fill="url(#paint0_radial_2305_2399)" rx="4.098" ry="3.974" transform="matrix(.06517 -.99787 .9976 .06933 389.562 615.895)"/>
      <ellipse cx="4.098" cy="3.974" fill="url(#paint1_radial_2305_2399)" opacity=".5" rx="4.098" ry="3.974" transform="matrix(.06517 -.99787 .9976 .06933 371.417 405.961)"/>
      <ellipse cx="4.098" cy="3.974" fill="url(#paint2_radial_2305_2399)" rx="4.098" ry="3.974" transform="matrix(.06517 -.99787 .9976 .06933 146.413 327.065)"/>
      <ellipse cx="4.098" cy="3.974" fill="url(#paint3_radial_2305_2399)" opacity=".7" rx="4.098" ry="3.974" transform="matrix(.06517 -.99787 .9976 .06933 84.57 408.208)"/>
      <ellipse cx="4.098" cy="3.974" fill="url(#paint4_radial_2305_2399)" rx="4.098" ry="3.974" transform="matrix(.06517 -.99787 .9976 .06933 103.394 241.921)"/>
      <ellipse cx="4.098" cy="3.974" fill="url(#paint5_radial_2305_2399)" opacity=".7" rx="4.098" ry="3.974" transform="matrix(.06517 -.99787 .9976 .06933 350.349 765.156)"/>
      <ellipse cx="4.098" cy="3.974" fill="url(#paint6_radial_2305_2399)" rx="4.098" ry="3.974" transform="matrix(.06517 -.99787 .9976 .06933 423.148 894.268)"/>
      <ellipse cx="4.098" cy="3.974" fill="url(#paint7_radial_2305_2399)" rx="4.098" ry="3.974" transform="matrix(.06517 -.99787 .9976 .06933 205.198 390.302)"/>
      <ellipse cx="4.098" cy="3.974" fill="url(#paint8_radial_2305_2399)" opacity=".5" rx="4.098" ry="3.974" transform="matrix(.06517 -.99787 .9976 .06933 65.866 633.655)"/>
      <ellipse cx="4.098" cy="3.974" fill="url(#paint9_radial_2305_2399)" opacity=".5" rx="4.098" ry="3.974" transform="matrix(.06517 -.99787 .9976 .06933 154.147 769.594)"/>
      <ellipse cx="4.098" cy="3.974" fill="url(#paint10_radial_2305_2399)" rx="4.098" ry="3.974" transform="matrix(.06517 -.99787 .9976 .06933 401.404 300.423)"/>
      <ellipse cx="4.098" cy="3.974" fill="url(#paint11_radial_2305_2399)" opacity=".7" rx="4.098" ry="3.974" transform="matrix(.06517 -.99787 .9976 .06933 324.993 275.396)"/>
      <ellipse cx="4.098" cy="3.974" fill="url(#paint12_radial_2305_2399)" opacity=".2" rx="4.098" ry="3.974" transform="matrix(.06517 -.99787 .9976 .06933 413.753 172.299)"/>
      <ellipse cx="4.098" cy="3.974" fill="url(#paint13_radial_2305_2399)" rx="4.098" ry="3.974" transform="matrix(.06517 -.99787 .9976 .06933 311.809 74.844)"/>
    </g>
  </g>
  <defs>
    <radialGradient id="paint0_radial_2305_2399" cx="0" cy="0" r="1" gradientTransform="matrix(0 3.97351 -4.09788 0 4.098 3.974)" gradientUnits="userSpaceOnUse">
      <stop offset=".016" stop-color="#fff"/>
      <stop offset="1" stop-color="#fff" stop-opacity="0"/>
    </radialGradient>
    <radialGradient id="paint1_radial_2305_2399" cx="0" cy="0" r="1" gradientTransform="matrix(0 3.97351 -4.09788 0 4.098 3.974)" gradientUnits="userSpaceOnUse">
      <stop offset=".016" stop-color="#fff"/>
      <stop offset="1" stop-color="#fff" stop-opacity="0"/>
    </radialGradient>
    <radialGradient id="paint2_radial_2305_2399" cx="0" cy="0" r="1" gradientTransform="matrix(0 3.97351 -4.09788 0 4.098 3.974)" gradientUnits="userSpaceOnUse">
      <stop offset=".016" stop-color="#fff"/>
      <stop offset="1" stop-color="#fff" stop-opacity="0"/>
    </radialGradient>
    <radialGradient id="paint3_radial_2305_2399" cx="0" cy="0" r="1" gradientTransform="matrix(0 3.97351 -4.09788 0 4.098 3.974)" gradientUnits="userSpaceOnUse">
      <stop offset=".016" stop-color="#fff"/>
      <stop offset="1" stop-color="#fff" stop-opacity="0"/>
    </radialGradient>
    <radialGradient id="paint4_radial_2305_2399" cx="0" cy="0" r="1" gradientTransform="matrix(0 3.97351 -4.09788 0 4.098 3.974)" gradientUnits="userSpaceOnUse">
      <stop offset=".016" stop-color="#fff"/>
      <stop offset="1" stop-color="#fff" stop-opacity="0"/>
    </radialGradient>
    <radialGradient id="paint5_radial_2305_2399" cx="0" cy="0" r="1" gradientTransform="matrix(0 3.97351 -4.09788 0 4.098 3.974)" gradientUnits="userSpaceOnUse">
      <stop offset=".016" stop-color="#fff"/>
      <stop offset="1" stop-color="#fff" stop-opacity="0"/>
    </radialGradient>
    <radialGradient id="paint6_radial_2305_2399" cx="0" cy="0" r="1" gradientTransform="matrix(0 3.97351 -4.09788 0 4.098 3.974)" gradientUnits="userSpaceOnUse">
      <stop offset=".016" stop-color="#fff"/>
      <stop offset="1" stop-color="#fff" stop-opacity="0"/>
    </radialGradient>
    <radialGradient id="paint7_radial_2305_2399" cx="0" cy="0" r="1" gradientTransform="matrix(0 3.97351 -4.09788 0 4.098 3.974)" gradientUnits="userSpaceOnUse">
      <stop offset=".016" stop-color="#fff"/>
      <stop offset="1" stop-color="#fff" stop-opacity="0"/>
    </radialGradient>
    <radialGradient id="paint8_radial_2305_2399" cx="0" cy="0" r="1" gradientTransform="matrix(0 3.97351 -4.09788 0 4.098 3.974)" gradientUnits="userSpaceOnUse">
      <stop offset=".016" stop-color="#fff"/>
      <stop offset="1" stop-color="#fff" stop-opacity="0"/>
    </radialGradient>
    <radialGradient id="paint9_radial_2305_2399" cx="0" cy="0" r="1" gradientTransform="matrix(0 3.97351 -4.09788 0 4.098 3.974)" gradientUnits="userSpaceOnUse">
      <stop offset=".016" stop-color="#fff"/>
      <stop offset="1" stop-color="#fff" stop-opacity="0"/>
    </radialGradient>
    <radialGradient id="paint10_radial_2305_2399" cx="0" cy="0" r="1" gradientTransform="matrix(0 3.97351 -4.09788 0 4.098 3.974)" gradientUnits="userSpaceOnUse">
      <stop offset=".016" stop-color="#fff"/>
      <stop offset="1" stop-color="#fff" stop-opacity="0"/>
    </radialGradient>
    <radialGradient id="paint11_radial_2305_2399" cx="0" cy="0" r="1" gradientTransform="matrix(0 3.97351 -4.09788 0 4.098 3.974)" gradientUnits="userSpaceOnUse">
      <stop offset=".016" stop-color="#fff"/>
      <stop offset="1" stop-color="#fff" stop-opacity="0"/>
    </radialGradient>
    <radialGradient id="paint12_radial_2305_2399" cx="0" cy="0" r="1" gradientTransform="matrix(0 3.97351 -4.09788 0 4.098 3.974)" gradientUnits="userSpaceOnUse">
      <stop offset=".016" stop-color="#fff"/>
      <stop offset="1" stop-color="#fff" stop-opacity="0"/>
    </radialGradient>
    <radialGradient id="paint13_radial_2305_2399" cx="0" cy="0" r="1" gradientTransform="matrix(0 3.97351 -4.09788 0 4.098 3.974)" gradientUnits="userSpaceOnUse">
      <stop offset=".016" stop-color="#fff"/>
      <stop offset="1" stop-color="#fff" stop-opacity="0"/>
    </radialGradient>
    <clipPath id="clip0_2305_2399">
      <path fill="#fff" d="M0 0h500v1045H0z"/>
    </clipPath>
    <clipPath id="clip1_2305_2399">
      <path fill="#fff" d="M0 0h576v1045H0z"/>
    </clipPath>
    <filter id="filter0_d_2305_2399" width="740" height="904.521" x="-78" y="137.876" color-interpolation-filters="sRGB" filterUnits="userSpaceOnUse">
      <feFlood flood-opacity="0" result="BackgroundImageFix"/>
      <feColorMatrix in="SourceAlpha" result="hardAlpha" values="0 0 0 0 0 0 0 0 0 0 0 0 0 0 0 0 0 0 127 0"/>
      <feOffset dx="4" dy="4"/>
      <feGaussianBlur stdDeviation="2"/>
      <feComposite in2="hardAlpha" operator="out"/>
      <feColorMatrix values="0 0 0 0 1 0 0 0 0 1 0 0 0 0 1 0 0 0 0.25 0"/>
      <feBlend in2="BackgroundImageFix" result="effect1_dropShadow_2305_2399"/>
      <feBlend in="SourceGraphic" in2="effect1_dropShadow_2305_2399" result="shape"/>
    </filter>
  </defs>
</svg>
