<svg xmlns="http://www.w3.org/2000/svg" width="500" height="1045" fill="none">
    <path stroke="#180A24" stroke-opacity="1" d="M83.667 0H-83.167v130.625H83.667V0Z" opacity=".03"/>
    <path stroke="#180A24" stroke-opacity="1" d="M250.5 0H83.666v130.625H250.5V0Z" opacity=".03"/>
    <path fill="#180A24" fill-opacity=".4" d="M83.667 5.672c3 0 5.433-2.54 5.433-5.672 0-3.132-2.433-5.672-5.433-5.672S78.234-3.132 78.234 0c0 3.132 2.432 5.672 5.433 5.672Z"/>
    <path stroke="#180A24" stroke-opacity="1" d="M417.333 0H250.5v130.625h166.833V0Z" opacity=".03"/>
    <path fill="#180A24" fill-opacity=".4" d="M250.5 5.672c3.001 0 5.433-2.54 5.433-5.672 0-3.132-2.432-5.672-5.433-5.672s-5.433 2.54-5.433 5.672c0 3.132 2.432 5.672 5.433 5.672Z"/>
    <path stroke="#180A24" stroke-opacity="1" d="M584.167 0H417.333v130.625h166.834V0Z" opacity=".03"/>
    <path fill="#180A24" fill-opacity=".4" d="M417.333 5.672c3.001 0 5.433-2.54 5.433-5.672 0-3.132-2.432-5.672-5.433-5.672-3 0-5.433 2.54-5.433 5.672 0 3.132 2.433 5.672 5.433 5.672Z"/>
    <path stroke="#180A24" stroke-opacity="1" d="M83.667 130.625H-83.167V261.25H83.667V130.625Z" opacity=".03"/>
    <path stroke="#180A24" stroke-opacity="1" d="M250.5 130.625H83.666V261.25H250.5V130.625Z" opacity=".03"/>
    <path fill="#180A24" fill-opacity=".4" d="M83.667 136.297c3 0 5.433-2.539 5.433-5.672 0-3.132-2.433-5.672-5.433-5.672s-5.433 2.54-5.433 5.672c0 3.133 2.432 5.672 5.433 5.672Z"/>
    <path stroke="#180A24" stroke-opacity="1" d="M417.333 130.625H250.5V261.25h166.833V130.625Z" opacity=".03"/>
    <path fill="#180A24" fill-opacity=".4" d="M250.5 136.297c3.001 0 5.433-2.539 5.433-5.672 0-3.132-2.432-5.672-5.433-5.672s-5.433 2.54-5.433 5.672c0 3.133 2.432 5.672 5.433 5.672Z"/>
    <path stroke="#180A24" stroke-opacity="1" d="M584.167 130.625H417.333V261.25h166.834V130.625Z" opacity=".03"/>
    <path fill="#180A24" fill-opacity=".4" d="M417.333 136.297c3.001 0 5.433-2.539 5.433-5.672 0-3.132-2.432-5.672-5.433-5.672-3 0-5.433 2.54-5.433 5.672 0 3.133 2.433 5.672 5.433 5.672Z"/>
    <path stroke="#180A24" stroke-opacity="1" d="M83.667 261.25H-83.167v130.625H83.667V261.25Z" opacity=".03"/>
    <path stroke="#180A24" stroke-opacity="1" d="M250.5 261.25H83.666v130.625H250.5V261.25Z" opacity=".03"/>
    <path fill="#180A24" fill-opacity=".4" d="M83.667 266.922c3 0 5.433-2.539 5.433-5.672 0-3.132-2.433-5.672-5.433-5.672s-5.433 2.54-5.433 5.672c0 3.133 2.432 5.672 5.433 5.672Z"/>
    <path stroke="#180A24" stroke-opacity="1" d="M417.333 261.25H250.5v130.625h166.833V261.25Z" opacity=".03"/>
    <path fill="#180A24" fill-opacity=".4" d="M250.5 266.922c3.001 0 5.433-2.539 5.433-5.672 0-3.132-2.432-5.672-5.433-5.672s-5.433 2.54-5.433 5.672c0 3.133 2.432 5.672 5.433 5.672Z"/>
    <path stroke="#180A24" stroke-opacity="1" d="M584.167 261.25H417.333v130.625h166.834V261.25Z" opacity=".03"/>
    <path fill="#180A24" fill-opacity=".4" d="M417.333 266.922c3.001 0 5.433-2.539 5.433-5.672 0-3.132-2.432-5.672-5.433-5.672-3 0-5.433 2.54-5.433 5.672 0 3.133 2.433 5.672 5.433 5.672Z"/>
    <path stroke="#180A24" stroke-opacity="1" d="M83.667 391.875H-83.167V522.5H83.667V391.875Z" opacity=".03"/>
    <path stroke="#180A24" stroke-opacity="1" d="M250.5 391.875H83.666V522.5H250.5V391.875Z" opacity=".03"/>
    <path fill="#180A24" fill-opacity=".4" d="M83.667 397.547c3 0 5.433-2.54 5.433-5.672 0-3.132-2.433-5.672-5.433-5.672s-5.433 2.54-5.433 5.672c0 3.132 2.432 5.672 5.433 5.672Z"/>
    <path stroke="#180A24" stroke-opacity="1" d="M417.333 391.875H250.5V522.5h166.833V391.875Z" opacity=".03"/>
    <path fill="#180A24" fill-opacity=".4" d="M250.5 397.547c3.001 0 5.433-2.54 5.433-5.672 0-3.132-2.432-5.672-5.433-5.672s-5.433 2.54-5.433 5.672c0 3.132 2.432 5.672 5.433 5.672Z"/>
    <path stroke="#180A24" stroke-opacity="1" d="M584.167 391.875H417.333V522.5h166.834V391.875Z" opacity=".03"/>
    <path fill="#180A24" fill-opacity=".4" d="M417.333 397.547c3.001 0 5.433-2.54 5.433-5.672 0-3.132-2.432-5.672-5.433-5.672-3 0-5.433 2.54-5.433 5.672 0 3.132 2.433 5.672 5.433 5.672Z"/>
    <path stroke="#180A24" stroke-opacity="1" d="M83.667 522.5H-83.167v130.625H83.667V522.5Z" opacity=".03"/>
    <path stroke="#180A24" stroke-opacity="1" d="M250.5 522.5H83.666v130.625H250.5V522.5Z" opacity=".03"/>
    <path fill="#180A24" fill-opacity=".4" d="M83.667 528.172c3 0 5.433-2.54 5.433-5.672 0-3.132-2.433-5.672-5.433-5.672s-5.433 2.54-5.433 5.672c0 3.132 2.432 5.672 5.433 5.672Z"/>
    <path stroke="#180A24" stroke-opacity="1" d="M417.333 522.5H250.5v130.625h166.833V522.5Z" opacity=".03"/>
    <path fill="#180A24" fill-opacity=".4" d="M250.5 528.172c3.001 0 5.433-2.54 5.433-5.672 0-3.132-2.432-5.672-5.433-5.672s-5.433 2.54-5.433 5.672c0 3.132 2.432 5.672 5.433 5.672Z"/>
    <path stroke="#180A24" stroke-opacity="1" d="M584.167 522.5H417.333v130.625h166.834V522.5Z" opacity=".03"/>
    <path fill="#180A24" fill-opacity=".4" d="M417.333 528.172c3.001 0 5.433-2.54 5.433-5.672 0-3.132-2.432-5.672-5.433-5.672-3 0-5.433 2.54-5.433 5.672 0 3.132 2.433 5.672 5.433 5.672Z"/>
    <path stroke="#180A24" stroke-opacity="1" d="M83.667 653.125H-83.167V783.75H83.667V653.125Z" opacity=".03"/>
    <path stroke="#180A24" stroke-opacity="1" d="M250.5 653.125H83.666V783.75H250.5V653.125Z" opacity=".03"/>
    <path fill="#180A24" fill-opacity=".4" d="M83.667 658.797c3 0 5.433-2.54 5.433-5.672 0-3.132-2.433-5.672-5.433-5.672s-5.433 2.54-5.433 5.672c0 3.132 2.432 5.672 5.433 5.672Z"/>
    <path stroke="#180A24" stroke-opacity="1" d="M417.333 653.125H250.5V783.75h166.833V653.125Z" opacity=".03"/>
    <path fill="#180A24" fill-opacity=".4" d="M250.5 658.797c3.001 0 5.433-2.54 5.433-5.672 0-3.132-2.432-5.672-5.433-5.672s-5.433 2.54-5.433 5.672c0 3.132 2.432 5.672 5.433 5.672Z"/>
    <path stroke="#180A24" stroke-opacity="1" d="M584.167 653.125H417.333V783.75h166.834V653.125Z" opacity=".03"/>
    <path fill="#180A24" fill-opacity=".4" d="M417.333 658.797c3.001 0 5.433-2.54 5.433-5.672 0-3.132-2.432-5.672-5.433-5.672-3 0-5.433 2.54-5.433 5.672 0 3.132 2.433 5.672 5.433 5.672Z"/>
    <path stroke="#180A24" stroke-opacity="1" d="M83.667 783.75H-83.167v130.625H83.667V783.75Z" opacity=".03"/>
    <path stroke="#180A24" stroke-opacity="1" d="M250.5 783.75H83.666v130.625H250.5V783.75Z" opacity=".03"/>
    <path fill="#180A24" fill-opacity=".4" d="M83.667 789.422c3 0 5.433-2.54 5.433-5.672 0-3.132-2.433-5.672-5.433-5.672s-5.433 2.54-5.433 5.672c0 3.132 2.432 5.672 5.433 5.672Z"/>
    <path stroke="#180A24" stroke-opacity="1" d="M417.333 783.75H250.5v130.625h166.833V783.75Z" opacity=".03"/>
    <path fill="#180A24" fill-opacity=".4" d="M250.5 789.422c3.001 0 5.433-2.54 5.433-5.672 0-3.132-2.432-5.672-5.433-5.672s-5.433 2.54-5.433 5.672c0 3.132 2.432 5.672 5.433 5.672Z"/>
    <path stroke="#180A24" stroke-opacity="1" d="M584.167 783.75H417.333v130.625h166.834V783.75Z" opacity=".03"/>
    <path fill="#180A24" fill-opacity=".4" d="M417.333 789.422c3.001 0 5.433-2.54 5.433-5.672 0-3.132-2.432-5.672-5.433-5.672-3 0-5.433 2.54-5.433 5.672 0 3.132 2.433 5.672 5.433 5.672Z"/>
    <path stroke="#180A24" stroke-opacity="1" d="M83.667 914.375H-83.167V1045H83.667V914.375Z" opacity=".03"/>
    <path stroke="#180A24" stroke-opacity="1" d="M250.5 914.375H83.666V1045H250.5V914.375Z" opacity=".03"/>
    <path fill="#180A24" fill-opacity=".4" d="M83.667 920.047c3 0 5.433-2.54 5.433-5.672 0-3.132-2.433-5.672-5.433-5.672s-5.433 2.54-5.433 5.672c0 3.132 2.432 5.672 5.433 5.672Z"/>
    <path stroke="#180A24" stroke-opacity="1" d="M417.333 914.375H250.5V1045h166.833V914.375Z" opacity=".03"/>
    <path fill="#180A24" fill-opacity=".4" d="M250.5 920.047c3.001 0 5.433-2.54 5.433-5.672 0-3.132-2.432-5.672-5.433-5.672s-5.433 2.54-5.433 5.672c0 3.132 2.432 5.672 5.433 5.672Z"/>
    <path stroke="#180A24" stroke-opacity="1" d="M584.167 914.375H417.333V1045h166.834V914.375Z" opacity=".03"/>
    <path fill="#180A24" fill-opacity=".4" d="M417.333 920.047c3.001 0 5.433-2.54 5.433-5.672 0-3.132-2.432-5.672-5.433-5.672-3 0-5.433 2.54-5.433 5.672 0 3.132 2.433 5.672 5.433 5.672Z"/>
    <path stroke="#180A24" stroke-opacity="1" d="M83.667 1045H-83.167v130.62H83.667V1045Z" opacity=".03"/>
    <path stroke="#180A24" stroke-opacity="1" d="M250.5 1045H83.666v130.62H250.5V1045Z" opacity=".03"/>
    <path fill="#180A24" fill-opacity=".4" d="M83.667 1050.67c3 0 5.433-2.54 5.433-5.67s-2.433-5.67-5.433-5.67-5.433 2.54-5.433 5.67 2.432 5.67 5.433 5.67Z"/>
    <path stroke="#180A24" stroke-opacity="1" d="M417.333 1045H250.5v130.62h166.833V1045Z" opacity=".03"/>
    <path fill="#180A24" fill-opacity=".4" d="M250.5 1050.67c3.001 0 5.433-2.54 5.433-5.67s-2.432-5.67-5.433-5.67-5.433 2.54-5.433 5.67 2.432 5.67 5.433 5.67Z"/>
    <path stroke="#180A24" stroke-opacity="1" d="M584.167 1045H417.333v130.62h166.834V1045Z" opacity=".03"/>
    <path fill="#180A24" fill-opacity=".4" d="M417.333 1050.67c3.001 0 5.433-2.54 5.433-5.67s-2.432-5.67-5.433-5.67c-3 0-5.433 2.54-5.433 5.67s2.433 5.67 5.433 5.67Z"/>
</svg>
